<svg width="163" height="30" viewBox="0 0 163 30" fill="none" xmlns="http://www.w3.org/2000/svg">
<path d="M33.872 8.99799V29.5483H27.504V8.99799H33.872Z" fill="#59EFBD"/>
<path d="M38.9142 15.6121C40.7511 15.6121 42.2403 14.1314 42.2403 12.305C42.2403 10.4786 40.7511 8.99799 38.9142 8.99799C37.0772 8.99799 35.5881 10.4786 35.5881 12.305C35.5881 14.1314 37.0772 15.6121 38.9142 15.6121Z" fill="#2B57CE"/>
<path d="M153.742 8.95281V29.5031H147.374V8.95281H153.742Z" fill="#59EFBD"/>
<path d="M159.277 15.5631C161.114 15.5631 162.603 14.0825 162.603 12.2561C162.603 10.4297 161.114 8.94904 159.277 8.94904C157.44 8.94904 155.951 10.4297 155.951 12.2561C155.951 14.0825 157.44 15.5631 159.277 15.5631Z" fill="#2B57CE"/>
<path d="M0 9.12231H6.60671V11.9548C7.49317 10.5875 9.08423 8.98295 12.2891 8.98295C15.9258 8.98295 19.4072 10.9755 19.4072 15.9398V29.3299H12.6831V16.8211C12.6831 15.0433 11.3269 14.1431 9.83431 14.1431C8.34173 14.1431 6.69006 15.0019 6.69006 16.6629V29.3299H0V9.12231Z" fill="#59EFBD"/>
<path d="M53.6631 6.89251C55.5001 6.89251 56.9892 5.4119 56.9892 3.58547C56.9892 1.75905 55.5001 0.278442 53.6631 0.278442C51.8262 0.278442 50.337 1.75905 50.337 3.58547C50.337 5.4119 51.8262 6.89251 53.6631 6.89251Z" fill="#2B57CE"/>
<path d="M50.4772 9.12229H56.8452V29.3336H50.4772V9.12229Z" fill="#59EFBD"/>
<path d="M65.0859 19.3259C65.0859 13.0508 69.2151 8.73057 75.1134 8.73057C80.5193 8.73057 83.6446 12.4821 83.8605 16.9191H78.3751C78.1592 15.5518 77.3334 13.7137 75.1703 13.7137C72.8291 13.7137 71.2797 15.5518 71.2797 19.2468C71.2797 22.9418 72.8519 25.0699 75.2915 25.0699C77.4357 25.0699 78.2615 22.9983 78.4357 21.8834H83.7848C83.6484 26.1245 80.3829 29.7216 75.1134 29.7216C69.3742 29.7216 65.0859 25.6349 65.0859 19.3221V19.3259Z" fill="#59EFBD"/>
<path d="M98.6246 0.285987V12.015C99.5868 10.7457 101.023 9.06205 104.227 9.06205C108.061 9.06205 111.323 11.4086 111.323 15.6497V29.3336H104.618V16.5688C104.618 14.9868 103.224 14.1431 101.708 14.1431C100.193 14.1431 98.6398 15.0433 98.6398 16.6856V29.3336H91.9573V0.285987H98.6246Z" fill="#59EFBD"/>
<path d="M119.42 19.4615C119.42 13.5405 123.136 8.73057 129.504 8.73057C135.872 8.73057 139.236 13.0696 139.236 19.0886V20.7496H126.007C125.988 23.5068 127.462 25.0096 129.644 25.0096C131.334 25.0096 132.713 24.422 133.3 22.6819H139.278C138.611 27.0812 134.186 29.7178 129.822 29.7178C123.628 29.7178 119.423 25.6725 119.423 19.4539L119.42 19.4615ZM133.023 16.9191C133.023 14.9265 131.845 13.2843 129.504 13.2843C127.401 13.2843 125.985 15.0433 125.985 16.9191H133.023Z" fill="#59EFBD"/>
</svg>
